HIERARCHY
ROOT Hips
{
	OFFSET 0.000000 83.214638 0.000000
	CHANNELS 6 Xposition Yposition Zposition Xrotation Yrotation Zrotation
	JOINT Pelvis
	{
		OFFSET 0.000000 0.000000 0.000000
		CHANNELS 3 Xrotation Yrotation Zrotation
		JOINT LeftUpLeg
		{
			OFFSET 8.479700 -4.795502 -0.379100
			CHANNELS 3 Xrotation Yrotation Zrotation
			JOINT LeftLeg
			{
				OFFSET 0.024144 -32.555107 0.112900
				CHANNELS 3 Xrotation Yrotation Zrotation
				JOINT LeftFoot
				{
					OFFSET -0.024144 -32.638630 -3.012600
					CHANNELS 3 Xrotation Yrotation Zrotation
					JOINT LeftToeBase
					{
						OFFSET 0.970200 -13.225400 11.864200
						CHANNELS 3 Xrotation Yrotation Zrotation
						End Site
						{
							OFFSET 0.000000 12.319262 0.000000
						}
					}
					JOINT LFootTongue
					{
						OFFSET 1.142400 -1.059800 6.665200
						CHANNELS 3 Xrotation Yrotation Zrotation
						End Site
						{
							OFFSET 0.000000 12.319262 0.000000
						}
					}
				}
				JOINT LeftPantLeg
				{
					OFFSET 0.918482 -16.533964 -2.284700
					CHANNELS 3 Xrotation Yrotation Zrotation
					End Site
					{
						OFFSET 0.350399 24.744368 0.000000
					}
				}
			}
		}
		JOINT RightUpLeg
		{
			OFFSET -8.479700 -4.795502 -0.379100
			CHANNELS 3 Xrotation Yrotation Zrotation
			JOINT RightLeg
			{
				OFFSET -0.023144 -32.555092 0.112900
				CHANNELS 3 Xrotation Yrotation Zrotation
				JOINT RightFoot
				{
					OFFSET 0.023144 -32.638641 -3.012700
					CHANNELS 3 Xrotation Yrotation Zrotation
					JOINT RightToeBase
					{
						OFFSET -0.970200 -13.225400 11.864200
						CHANNELS 3 Xrotation Yrotation Zrotation
						End Site
						{
							OFFSET 0.000000 12.319244 0.000000
						}
					}
					JOINT RFootTongue
					{
						OFFSET -1.142200 -1.059800 6.665200
						CHANNELS 3 Xrotation Yrotation Zrotation
						End Site
						{
							OFFSET 0.000000 12.319243 0.000000
						}
					}
				}
				JOINT RightPantLeg
				{
					OFFSET -0.919482 -16.533978 -2.284800
					CHANNELS 3 Xrotation Yrotation Zrotation
					End Site
					{
						OFFSET -0.350400 24.744419 0.000000
					}
				}
			}
		}
	}
	JOINT Spine
	{
		OFFSET 0.000000 7.722000 1.166200
		CHANNELS 3 Xrotation Yrotation Zrotation
		JOINT Spine1
		{
			OFFSET 0.000000 12.024101 0.248800
			CHANNELS 3 Xrotation Yrotation Zrotation
			JOINT Spine2
			{
				OFFSET 0.000000 11.502998 -0.491200
				CHANNELS 3 Xrotation Yrotation Zrotation
				JOINT Neck
				{
					OFFSET 0.000000 18.430702 -3.123100
					CHANNELS 3 Xrotation Yrotation Zrotation
					JOINT Head
					{
						OFFSET 0.000000 9.051102 1.034000
						CHANNELS 3 Xrotation Yrotation Zrotation
						JOINT HairB
						{
							OFFSET 0.208400 24.786102 24.822300
							CHANNELS 3 Xrotation Yrotation Zrotation
							End Site
							{
								OFFSET 0.000000 32.263779 0.000000
							}
						}
						JOINT HairA
						{
							OFFSET -7.081100 24.428299 23.196600
							CHANNELS 3 Xrotation Yrotation Zrotation
							End Site
							{
								OFFSET 0.000000 32.263779 0.000000
							}
						}
						JOINT Hat
						{
							OFFSET 16.728800 15.048294 -15.439601
							CHANNELS 3 Xrotation Yrotation Zrotation
							End Site
							{
								OFFSET 0.000000 32.263779 0.000000
							}
						}
					}
				}
				JOINT LeftShoulder
				{
					OFFSET 6.197800 13.665199 -4.064700
					CHANNELS 3 Xrotation Yrotation Zrotation
					JOINT LeftArm
					{
						OFFSET 7.778100 -0.187103 -1.709300
						CHANNELS 3 Xrotation Yrotation Zrotation
						JOINT LeftForeArm
						{
							OFFSET 22.049376 0.000000 0.000000
							CHANNELS 3 Xrotation Yrotation Zrotation
							JOINT LeftHand
							{
								OFFSET 23.009392 0.000000 0.000000
								CHANNELS 3 Xrotation Yrotation Zrotation
								JOINT LeftHandThumb1
								{
									OFFSET 3.507191 -2.063065 3.133727
									CHANNELS 3 Xrotation Yrotation Zrotation
									JOINT LeftHandThumb2
									{
										OFFSET 3.101337 -1.790558 1.790558
										CHANNELS 3 Xrotation Yrotation Zrotation
										JOINT LeftHandThumb3
										{
											OFFSET 3.058640 -1.765907 1.765906
											CHANNELS 3 Xrotation Yrotation Zrotation
											End Site
											{
												OFFSET -0.415260 3.926476 -0.049563
											}
										}
									}
								}
								JOINT LeftHandIndex1
								{
									OFFSET 11.334419 -0.901459 3.706815
									CHANNELS 3 Xrotation Yrotation Zrotation
									JOINT LeftHandIndex2
									{
										OFFSET 3.283112 0.000000 0.000000
										CHANNELS 3 Xrotation Yrotation Zrotation
										JOINT LeftHandIndex3
										{
											OFFSET 3.323853 0.000000 0.000000
											CHANNELS 3 Xrotation Yrotation Zrotation
											End Site
											{
												OFFSET -1.135597 3.097809 0.402452
											}
										}
									}
								}
								JOINT LeftHandMiddle1
								{
									OFFSET 11.335861 0.000000 0.000000
									CHANNELS 3 Xrotation Yrotation Zrotation
									JOINT LeftHandMiddle2
									{
										OFFSET 3.410492 0.000000 0.000000
										CHANNELS 3 Xrotation Yrotation Zrotation
										JOINT LeftHandMiddle3
										{
											OFFSET 3.312172 0.000000 0.000000
											CHANNELS 3 Xrotation Yrotation Zrotation
											End Site
											{
												OFFSET -1.150200 3.080154 0.400270
											}
										}
									}
								}
								JOINT LeftHandRing1
								{
									OFFSET 11.514786 -0.013176 -3.003090
									CHANNELS 3 Xrotation Yrotation Zrotation
									JOINT LeftHandRing2
									{
										OFFSET 3.053307 0.000000 0.000000
										CHANNELS 3 Xrotation Yrotation Zrotation
										JOINT LeftHandRing3
										{
											OFFSET 3.295807 0.000000 0.000000
											CHANNELS 3 Xrotation Yrotation Zrotation
											End Site
											{
												OFFSET -1.281006 3.013344 0.375733
											}
										}
									}
								}
								JOINT LeftHandPinky1
								{
									OFFSET 10.518692 -0.960396 -5.730441
									CHANNELS 3 Xrotation Yrotation Zrotation
									JOINT LeftHandPinky2
									{
										OFFSET 2.861649 0.000000 0.000000
										CHANNELS 3 Xrotation Yrotation Zrotation
										JOINT LeftHandPinky3
										{
											OFFSET 2.863380 0.000000 0.000000
											CHANNELS 3 Xrotation Yrotation Zrotation
											End Site
											{
												OFFSET -0.843597 2.711159 0.369971
											}
										}
									}
								}
							}
							JOINT LSleeve
							{
								OFFSET 6.676277 -0.344902 -1.011730
								CHANNELS 3 Xrotation Yrotation Zrotation
								End Site
								{
									OFFSET 0.000000 14.885353 0.000000
								}
							}
						}
					}
				}
				JOINT RightShoulder
				{
					OFFSET -6.197800 13.665199 -4.064700
					CHANNELS 3 Xrotation Yrotation Zrotation
					JOINT RightArm
					{
						OFFSET -7.778100 -0.187103 -1.709300
						CHANNELS 3 Xrotation Yrotation Zrotation
						JOINT RightForeArm
						{
							OFFSET -22.049376 0.000000 0.000000
							CHANNELS 3 Xrotation Yrotation Zrotation
							JOINT RightHand
							{
								OFFSET -23.009392 0.000000 0.000000
								CHANNELS 3 Xrotation Yrotation Zrotation
								JOINT RightHandThumb1
								{
									OFFSET -3.507191 -2.063065 3.133727
									CHANNELS 3 Xrotation Yrotation Zrotation
									JOINT RightHandThumb2
									{
										OFFSET -3.101337 -1.790558 1.790558
										CHANNELS 3 Xrotation Yrotation Zrotation
										JOINT RightHandThumb3
										{
											OFFSET -3.058640 -1.765907 1.765906
											CHANNELS 3 Xrotation Yrotation Zrotation
											End Site
											{
												OFFSET 0.415260 3.926476 -0.049563
											}
										}
									}
								}
								JOINT RightHandIndex1
								{
									OFFSET -11.334419 -0.901459 3.706815
									CHANNELS 3 Xrotation Yrotation Zrotation
									JOINT RightHandIndex2
									{
										OFFSET -3.283112 0.000000 0.000000
										CHANNELS 3 Xrotation Yrotation Zrotation
										JOINT RightHandIndex3
										{
											OFFSET -3.323853 0.000000 0.000000
											CHANNELS 3 Xrotation Yrotation Zrotation
											End Site
											{
												OFFSET 1.135597 3.097809 0.402452
											}
										}
									}
								}
								JOINT RightHandMiddle1
								{
									OFFSET -11.335861 0.000000 0.000000
									CHANNELS 3 Xrotation Yrotation Zrotation
									JOINT RightHandMiddle2
									{
										OFFSET -3.410492 0.000000 0.000000
										CHANNELS 3 Xrotation Yrotation Zrotation
										JOINT RightHandMiddle3
										{
											OFFSET -3.312172 0.000000 0.000000
											CHANNELS 3 Xrotation Yrotation Zrotation
											End Site
											{
												OFFSET 1.150200 3.080154 0.400270
											}
										}
									}
								}
								JOINT RightHandRing1
								{
									OFFSET -11.514786 -0.013176 -3.003090
									CHANNELS 3 Xrotation Yrotation Zrotation
									JOINT RightHandRing2
									{
										OFFSET -3.053307 0.000000 0.000000
										CHANNELS 3 Xrotation Yrotation Zrotation
										JOINT RightHandRing3
										{
											OFFSET -3.295807 0.000000 0.000000
											CHANNELS 3 Xrotation Yrotation Zrotation
											End Site
											{
												OFFSET 1.281006 3.013344 0.375733
											}
										}
									}
								}
								JOINT RightHandPinky1
								{
									OFFSET -10.518692 -0.960396 -5.730441
									CHANNELS 3 Xrotation Yrotation Zrotation
									JOINT RightHandPinky2
									{
										OFFSET -2.861649 0.000000 0.000000
										CHANNELS 3 Xrotation Yrotation Zrotation
										JOINT RightHandPinky3
										{
											OFFSET -2.863380 0.000000 0.000000
											CHANNELS 3 Xrotation Yrotation Zrotation
											End Site
											{
												OFFSET 0.843597 2.711159 0.369971
											}
										}
									}
								}
							}
							JOINT RSleeve
							{
								OFFSET -6.676277 -0.344902 -1.011730
								CHANNELS 3 Xrotation Yrotation Zrotation
								End Site
								{
									OFFSET 0.000000 14.885353 0.000000
								}
							}
						}
					}
				}
				JOINT Backpack
				{
					OFFSET 0.000000 -2.471497 36.677502
					CHANNELS 3 Xrotation Yrotation Zrotation
					End Site
					{
						OFFSET 0.000000 20.427315 0.000000
					}
				}
				JOINT Hood
				{
					OFFSET 0.000000 18.754097 -10.431000
					CHANNELS 3 Xrotation Yrotation Zrotation
					JOINT Hood1
					{
						OFFSET 0.000000 -5.011002 -7.685901
						CHANNELS 3 Xrotation Yrotation Zrotation
						End Site
						{
							OFFSET 0.000000 9.175140 0.000000
						}
					}
				}
				JOINT LHoodieString
				{
					OFFSET 5.250500 16.397697 3.089900
					CHANNELS 3 Xrotation Yrotation Zrotation
					JOINT LHoodieString1
					{
						OFFSET 0.257700 -6.364304 3.694600
						CHANNELS 3 Xrotation Yrotation Zrotation
						JOINT LHoodieString2
						{
							OFFSET 0.000000 -9.643799 2.679100
							CHANNELS 3 Xrotation Yrotation Zrotation
							End Site
							{
								OFFSET 0.000000 10.009018 0.000000
							}
						}
					}
				}
				JOINT RHoodieString
				{
					OFFSET -5.250500 16.397697 3.089900
					CHANNELS 3 Xrotation Yrotation Zrotation
					JOINT RHoodieString1
					{
						OFFSET -0.257700 -6.364304 3.694600
						CHANNELS 3 Xrotation Yrotation Zrotation
						JOINT RHoodieString2
						{
							OFFSET 0.000000 -9.643799 2.679100
							CHANNELS 3 Xrotation Yrotation Zrotation
							End Site
							{
								OFFSET 0.000000 10.009018 0.000000
							}
						}
					}
				}
			}
			JOINT LBackpack_Strap
			{
				OFFSET 15.223200 -7.719803 -6.610900
				CHANNELS 3 Xrotation Yrotation Zrotation
				End Site
				{
					OFFSET 0.000000 16.040596 0.000000
				}
			}
			JOINT RBackpack_Strap
			{
				OFFSET -15.223000 -7.719803 -6.610900
				CHANNELS 3 Xrotation Yrotation Zrotation
				End Site
				{
					OFFSET 0.000000 16.040596 0.000000
				}
			}
		}
	}
	JOINT BoyFacialAnim_Joint
	{
		OFFSET 1.000000 -82.208099 -1.550900
		CHANNELS 3 Xrotation Yrotation Zrotation
		End Site
		{
			OFFSET 0.000000 30.012791 0.000000
		}
	}
}
MOTION
Frames: 4
Frame Time: 0.033333
0.224367 81.988792 -0.313486 -2.763708 -4.086124 0.084787 -0.000000 -0.000000 -0.000000 -8.661587 0.365543 2.755148 16.056897 6.927039 2.527902 -4.204020 0.475646 -5.966632 -0.000000 0.000000 -0.000000 -0.000000 0.000000 0.000000 -0.000000 -0.000000 0.000000 -10.825349 -3.224394 -3.274836 17.153429 1.389807 -1.634001 -3.631114 -0.388958 3.688660 -0.000000 0.000000 0.000000 -0.000000 0.000000 0.000000 0.000000 0.000000 -0.000000 2.072097 -0.059988 -0.582882 4.188610 -0.160747 -0.895947 4.187123 -0.162964 -0.903563 -7.833282 1.069909 0.304712 -1.955379 5.424913 1.879045 -0.000000 -0.000000 -0.000000 -0.000000 -0.000000 -0.000000 -0.000000 -0.000000 -0.000000 0.791169 0.774571 -1.693472 23.764057 -52.079007 -44.187960 -0.000021 -25.434325 -0.000014 -35.619450 20.604929 -6.679914 -1.593601 7.402365 6.696206 5.056560 22.083805 1.753629 0.000001 0.000001 0.000001 0.058214 0.895307 -7.440297 0.058209 0.895299 -7.440298 -0.000003 0.000001 -0.000003 0.057971 0.893393 -7.424300 0.058454 0.897213 -7.456285 0.000005 0.000000 0.000000 0.058219 0.895302 -7.440301 0.058201 0.895297 -7.440309 0.000003 0.000002 -0.000000 0.566766 4.917679 -6.955640 0.048185 -3.159519 -7.946753 -0.000003 -0.000000 -0.000000 0.000001 0.000001 -0.000001 4.984234 13.899584 6.847596 23.737612 47.242305 43.350511 0.000002 17.120243 -0.000008 -24.527891 -1.951088 -7.002047 -1.870814 -5.360490 -6.862592 5.790441 -21.760505 -1.082729 -0.000003 0.000001 0.000001 0.055308 -0.877077 7.216631 0.055308 -0.877086 7.216608 0.000001 -0.000002 0.000003 0.055306 -0.877077 7.216627 0.055312 -0.877085 7.216623 0.000004 0.000000 -0.000002 0.055307 -0.877072 7.216633 0.055302 -0.877087 7.216613 -0.000000 -0.000000 0.000002 0.055299 -0.877081 7.216617 0.055313 -0.877078 7.216620 0.000003 -0.000001 -0.000002 -0.000002 0.000000 -0.000001 0.000000 -0.000000 -0.000000 0.000000 -0.000000 -0.000000 0.000000 -0.000000 -0.000000 0.000000 -0.000000 -0.000000 0.000000 -0.000000 0.000000 -0.000000 0.000000 0.000000 0.000000 -0.000000 -0.000000 0.000000 -0.000000 0.000000 -0.000000 0.000000 0.000000 0.000001 -0.000000 -0.000000 0.000001 -0.000000 -0.000000 -0.000000 -0.000000 -0.000000 
0.222915 81.986526 -0.343867 -2.752402 -4.160131 0.079256 0.000000 -0.000000 0.000000 -8.698237 0.351058 2.777855 16.081832 7.008900 2.499107 -4.196028 0.474386 -5.965722 -0.000000 0.000000 -0.000000 -0.000000 0.000000 -0.000000 0.000000 0.000000 -0.000000 -10.881305 -3.193168 -3.237632 17.158108 1.446532 -1.659622 -3.592356 -0.387644 3.682627 -0.000000 0.000000 0.000000 -0.000000 0.000000 0.000000 0.000000 -0.000000 -0.000000 2.069960 -0.062850 -0.583167 4.189618 -0.159649 -0.898221 4.188117 -0.161855 -0.905270 -7.886066 1.075286 0.304579 -1.993802 5.452820 1.823694 -0.000000 -0.000000 -0.000000 -0.000000 -0.000000 -0.000000 -0.000000 -0.000000 -0.000000 0.781233 0.822397 -1.765295 23.935583 -52.137324 -44.016717 -0.000009 -25.491144 0.000003 -35.718027 20.796538 -6.731950 -1.593598 7.402685 6.696225 5.056722 22.086083 1.753762 -0.000004 -0.000004 -0.000001 0.058223 0.895342 -7.440610 0.058220 0.895345 -7.440627 -0.000001 0.000001 -0.000002 0.057977 0.893426 -7.424615 0.058480 0.897254 -7.456629 0.000003 -0.000001 0.000000 0.058229 0.895335 -7.440612 0.058214 0.895343 -7.440632 0.000000 -0.000001 -0.000002 0.566798 4.917701 -6.955982 0.048214 -3.159463 -7.947062 -0.000003 0.000001 -0.000000 0.000001 0.000001 -0.000003 4.997171 13.984187 6.939695 24.014125 47.244675 43.030684 0.000005 17.173908 -0.000002 -24.292159 -1.779957 -7.227354 -1.870532 -5.341718 -6.859646 5.774250 -21.566285 -1.071598 -0.000001 -0.000000 0.000001 0.051368 -0.845382 6.954460 0.051360 -0.845387 6.954464 -0.000004 0.000000 0.000002 0.051368 -0.845387 6.954472 0.051365 -0.845380 6.954463 0.000002 0.000000 -0.000000 0.051374 -0.845374 6.954476 0.051367 -0.845378 6.954462 -0.000003 0.000000 0.000004 0.051369 -0.845383 6.954459 0.051366 -0.845376 6.954468 0.000001 -0.000001 0.000002 0.000001 -0.000000 -0.000001 0.000001 -0.000000 -0.000000 0.000001 -0.000000 -0.000000 0.000001 -0.000000 -0.000000 0.000001 -0.000000 -0.000000 0.000001 -0.000000 0.000000 0.000001 -0.000000 0.000000 0.000001 -0.000000 -0.000000 0.000001 -0.000000 0.000000 0.000001 -0.000000 0.000000 0.000000 0.000000 -0.000000 0.000000 0.000000 -0.000000 0.000000 -0.000000 0.000000 
0.217901 81.986038 -0.372452 -2.731491 -4.213467 0.060560 0.000000 -0.000000 0.000000 -8.746599 0.302381 2.819948 16.107838 7.098863 2.459520 -4.185434 0.469072 -5.965335 -0.000000 -0.000000 -0.000000 -0.000000 -0.000000 -0.000000 0.000000 0.000000 0.000000 -10.923541 -3.177924 -3.186724 17.129614 1.486640 -1.686302 -3.542395 -0.386514 3.678435 -0.000000 0.000000 0.000000 -0.000000 0.000000 0.000000 -0.000000 -0.000000 -0.000000 2.067998 -0.066084 -0.582561 4.186147 -0.156714 -0.900437 4.184620 -0.158914 -0.907145 -7.925262 1.079871 0.304617 -2.041933 5.478581 1.787763 -0.000000 0.000000 -0.000000 -0.000000 0.000000 -0.000000 -0.000000 0.000000 -0.000000 0.770986 0.869743 -1.822306 24.135739 -52.235316 -43.827316 0.000003 -25.572575 -0.000000 -35.889427 21.075228 -6.705298 -1.593622 7.402950 6.696275 5.057122 22.091480 1.754101 -0.000004 0.000003 -0.000001 0.058231 0.895454 -7.441503 0.058236 0.895464 -7.441581 0.000001 0.000000 -0.000002 0.057979 0.893532 -7.425525 0.058482 0.897375 -7.457576 0.000001 -0.000000 -0.000001 0.058234 0.895456 -7.441510 0.058224 0.895453 -7.441586 -0.000004 0.000001 -0.000004 0.566867 4.917802 -6.956872 0.048211 -3.159347 -7.948038 -0.000002 0.000000 -0.000000 0.000001 0.000001 -0.000001 5.009798 14.064516 7.023851 24.284577 47.248821 42.723513 0.000008 17.264229 -0.000004 -24.029772 -1.763844 -7.450535 -1.870590 -5.345232 -6.860221 5.763988 -21.443177 -1.064485 -0.000000 0.000002 0.000002 0.045835 -0.798797 6.569425 0.045848 -0.798790 6.569380 -0.000003 0.000001 0.000002 0.045831 -0.798796 6.569422 0.045854 -0.798796 6.569379 -0.000001 0.000001 -0.000002 0.045837 -0.798789 6.569423 0.045839 -0.798810 6.569383 -0.000004 0.000001 0.000002 0.045825 -0.798794 6.569414 0.045854 -0.798802 6.569382 -0.000003 -0.000001 0.000000 -0.000001 -0.000000 -0.000000 -0.000000 -0.000000 -0.000000 -0.000000 -0.000000 -0.000000 -0.000000 -0.000000 -0.000000 -0.000000 -0.000000 -0.000000 -0.000000 -0.000000 0.000000 -0.000000 -0.000000 0.000000 -0.000000 -0.000000 -0.000000 -0.000000 -0.000000 0.000000 -0.000000 -0.000000 0.000000 0.000000 -0.000000 0.000000 0.000000 -0.000000 0.000000 0.000000 -0.000000 0.000000 
0.210211 81.985573 -0.399604 -2.692484 -4.249313 0.028469 -0.000000 0.000000 -0.000000 -8.824430 0.229498 2.880532 16.151441 7.184788 2.415804 -4.180540 0.459977 -5.968428 -0.000000 0.000000 -0.000000 -0.000000 0.000000 0.000000 0.000001 -0.000000 -0.000001 -10.968190 -3.164466 -3.121130 17.080828 1.500876 -1.711190 -3.485910 -0.385602 3.676187 0.000000 0.000000 0.000000 0.000000 0.000000 0.000000 0.000000 -0.000000 0.000000 2.066830 -0.069142 -0.580711 4.178582 -0.153120 -0.900143 4.177019 -0.155323 -0.906829 -7.949662 1.082282 0.303236 -2.086002 5.496518 1.765148 -0.000000 -0.000000 0.000000 -0.000000 -0.000000 0.000000 -0.000000 -0.000000 0.000000 0.760793 0.915142 -1.865084 24.339745 -52.356245 -43.637146 -0.000003 -25.646527 -0.000007 -36.039848 21.342779 -6.650437 -1.593595 7.402068 6.696120 5.057563 22.097723 1.754534 0.000000 -0.000001 0.000002 0.058255 0.895616 -7.442983 0.058252 0.895657 -7.443191 -0.000004 -0.000001 -0.000004 0.058004 0.893712 -7.426994 0.058507 0.897569 -7.459186 0.000002 0.000000 0.000000 0.058263 0.895616 -7.442989 0.058252 0.895650 -7.443197 0.000000 -0.000002 -0.000001 0.566992 4.917971 -6.958362 0.048250 -3.159151 -7.949632 -0.000001 -0.000000 0.000001 -0.000002 0.000001 -0.000001 5.020749 14.125594 7.076102 24.489874 47.237059 42.479948 -0.000009 17.334673 0.000002 -23.789211 -1.741069 -7.701336 -1.870865 -5.364698 -6.863243 5.758130 -21.372453 -1.060364 -0.000001 0.000002 0.000004 0.039302 -0.739801 6.082306 0.039300 -0.739799 6.082312 0.000003 -0.000001 0.000002 0.039308 -0.739806 6.082301 0.039305 -0.739779 6.082337 0.000001 0.000001 -0.000002 0.039308 -0.739795 6.082303 0.039299 -0.739794 6.082316 -0.000001 0.000002 -0.000003 0.039306 -0.739802 6.082294 0.039303 -0.739801 6.082312 -0.000002 0.000000 0.000000 -0.000000 -0.000000 0.000000 0.000001 -0.000000 0.000000 0.000001 -0.000000 0.000000 0.000001 -0.000000 0.000000 0.000001 -0.000000 0.000000 0.000001 -0.000000 -0.000000 0.000000 -0.000000 -0.000000 0.000001 -0.000000 0.000000 0.000001 -0.000000 -0.000000 0.000000 -0.000000 -0.000000 -0.000000 0.000000 0.000000 -0.000000 0.000000 0.000000 -0.000000 0.000000 -0.000000 
